<svg xmlns="http://www.w3.org/2000/svg" viewBox="0 0 322.52 227.12"><defs><style>.cls-1{fill:#36495d;}.cls-2{fill:#f16522;}.cls-3{fill:#e41b24;}.cls-4{fill:#f89e1c;}</style></defs><g id="Layer_2" data-name="Layer 2"><g id="Layer_1-2" data-name="Layer 1"><rect class="cls-1" width="322.52" height="227.12" rx="29.88"/><rect class="cls-2" x="134.16" y="64.87" width="54.18" height="97.37"/><path class="cls-3" d="M137.61,113.56a61.84,61.84,0,0,1,23.65-48.69,61.93,61.93,0,1,0,0,97.37,61.82,61.82,0,0,1-23.65-48.68"/><path class="cls-4" d="M261.45,113.55a61.92,61.92,0,0,1-100.19,48.69,61.94,61.94,0,0,0,0-97.37,61.92,61.92,0,0,1,100.19,48.68m-5.91,38.38v-2h.8v-.4h-2v.4h.8v2Zm4,0v-2.4h-.62l-.72,1.65-.72-1.65h-.63v2.4h.44v-1.81l.67,1.56h.46l.68-1.57v1.82Z"/></g></g></svg>