<svg xmlns="http://www.w3.org/2000/svg" viewBox="0 0 322.52 227.12"><defs><style>.cls-1{fill:#253b80;}.cls-2{fill:#fff;}</style></defs><g id="Layer_2" data-name="Layer 2"><g id="Layer_1-2" data-name="Layer 1"><rect class="cls-1" width="322.52" height="227.12" rx="29.88"/><path class="cls-2" d="M77.44,99.92c-1,6.3-5.77,6.3-10.43,6.3H64.36l1.86-11.77a1.46,1.46,0,0,1,1.44-1.24h1.22c3.17,0,6.16,0,7.71,1.81C77.51,96.1,77.8,97.7,77.44,99.92Zm-2-16.46H57.85a2.45,2.45,0,0,0-2.42,2.06l-7.1,45.06a1.46,1.46,0,0,0,1.45,1.69h8.39a2.44,2.44,0,0,0,2.41-2.06l1.91-12.16A2.45,2.45,0,0,1,64.9,116h5.57c11.57,0,18.25-5.6,20-16.7.78-4.85,0-8.67-2.25-11.34C85.73,85,81.3,83.46,75.42,83.46Z"/><path class="cls-2" d="M116.21,116.09a9.38,9.38,0,0,1-9.49,8,6.52,6.52,0,0,1-7-8.18,9.41,9.41,0,0,1,9.43-8.1,7.09,7.09,0,0,1,5.61,2.29A7.27,7.27,0,0,1,116.21,116.09Zm11.73-16.37h-8.41a1.46,1.46,0,0,0-1.45,1.23l-.37,2.36-.59-.86c-1.82-2.64-5.89-3.53-9.94-3.53-9.3,0-17.24,7-18.79,16.93a15.88,15.88,0,0,0,3.14,12.92c2.56,3,6.23,4.28,10.6,4.28a16.08,16.08,0,0,0,11.64-4.82l-.37,2.34a1.46,1.46,0,0,0,1.44,1.7h7.58a2.44,2.44,0,0,0,2.41-2.07l4.55-28.79A1.46,1.46,0,0,0,127.94,99.72Z"/><path class="cls-2" d="M172.75,99.72H164.3a2.46,2.46,0,0,0-2,1.07L150.61,118l-4.94-16.5a2.43,2.43,0,0,0-2.34-1.74H135a1.46,1.46,0,0,0-1.39,1.93L142.94,129l-8.76,12.36a1.47,1.47,0,0,0,1.2,2.32h8.44a2.42,2.42,0,0,0,2-1L174,102A1.46,1.46,0,0,0,172.75,99.72Z"/><path class="cls-2" d="M202.77,99.92c-1,6.3-5.77,6.3-10.43,6.3h-2.65l1.86-11.77A1.46,1.46,0,0,1,193,93.21h1.22c3.17,0,6.16,0,7.71,1.81C202.84,96.1,203.12,97.7,202.77,99.92Zm-2-16.46H183.17a2.45,2.45,0,0,0-2.41,2.06l-7.1,45.06a1.45,1.45,0,0,0,1.44,1.69h9a1.71,1.71,0,0,0,1.68-1.44l2-12.78a2.44,2.44,0,0,1,2.41-2.06h5.56c11.58,0,18.25-5.6,20-16.7.79-4.85,0-8.67-2.24-11.34C211.05,85,206.63,83.46,200.74,83.46Z"/><path class="cls-2" d="M241.54,116.09a9.38,9.38,0,0,1-9.5,8,6.52,6.52,0,0,1-7-8.18,9.43,9.43,0,0,1,9.43-8.1,7.09,7.09,0,0,1,5.61,2.29A7.24,7.24,0,0,1,241.54,116.09Zm11.72-16.37h-8.4a1.46,1.46,0,0,0-1.45,1.23l-.37,2.36-.59-.86c-1.82-2.64-5.88-3.53-9.94-3.53-9.29,0-17.23,7-18.78,16.93a15.91,15.91,0,0,0,3.13,12.92c2.57,3,6.23,4.28,10.6,4.28a16.11,16.11,0,0,0,11.65-4.82l-.38,2.34a1.47,1.47,0,0,0,1.45,1.7h7.58a2.45,2.45,0,0,0,2.41-2.07l4.55-28.79A1.47,1.47,0,0,0,253.26,99.72Z"/><path class="cls-2" d="M263.18,84.7,256,130.58a1.46,1.46,0,0,0,1.45,1.69h7.25a2.44,2.44,0,0,0,2.41-2.06l7.11-45.06a1.46,1.46,0,0,0-1.44-1.69h-8.12A1.47,1.47,0,0,0,263.18,84.7Z"/></g></g></svg>