<svg xmlns="http://www.w3.org/2000/svg" viewBox="0 0 322.52 227.12"><defs><style>.cls-1{fill:#0066b2;}.cls-2{fill:#fff;}.cls-3{fill:#f9a533;}</style></defs><g id="Layer_2" data-name="Layer 2"><g id="Layer_1-2" data-name="Layer 1"><rect class="cls-1" width="322.52" height="227.12" rx="29.88"/><polygon class="cls-2" points="147.57 149.14 130.77 149.14 141.27 84.61 158.07 84.61 147.57 149.14"/><path class="cls-2" d="M116.64,84.62l-16,44.37-1.89-9.55h0l-5.65-29s-.69-5.81-8-5.81H58.63l-.31,1.09a62.68,62.68,0,0,1,17.57,7.37l14.6,56.06H108l26.73-64.52Z"/><path class="cls-2" d="M248.77,149.14h15.42L250.74,84.62h-13.5c-6.24,0-7.76,4.8-7.76,4.8l-25,59.72h17.51l3.5-9.59H246.8Zm-18.49-22.83,8.83-24.14,5,24.14Z"/><path class="cls-2" d="M205.74,100.13l2.4-13.86A48.56,48.56,0,0,0,193,83.46c-8.34,0-28.13,3.65-28.13,21.36,0,16.67,23.23,16.88,23.23,25.63s-20.84,7.19-27.71,1.67l-2.5,14.48s7.5,3.65,19,3.65,28.76-5.94,28.76-22.09c0-16.78-23.44-18.34-23.44-25.63S198.55,96.17,205.74,100.13Z"/><path class="cls-3" d="M98.73,119.44l-5.65-29s-.69-5.81-8-5.81H58.63l-.31,1.09A65.16,65.16,0,0,1,83.26,98.23,50.35,50.35,0,0,1,98.73,119.44Z"/></g></g></svg>